<?xml version="1.0" encoding="utf-8"?>
<!-- Generator: Adobe Illustrator 18.0.0, SVG Export Plug-In . SVG Version: 6.00 Build 0)  -->
<!DOCTYPE svg PUBLIC "-//W3C//DTD SVG 1.1//EN" "http://www.w3.org/Graphics/SVG/1.1/DTD/svg11.dtd">
<svg version="1.1" id="Capa_1" xmlns="http://www.w3.org/2000/svg" xmlns:xlink="http://www.w3.org/1999/xlink" x="0px" y="0px"
	 viewBox="0 0 612 126.5" enable-background="new 0 0 612 126.5" xml:space="preserve">
<g>
	<path fill="#E74D3D" d="M601.4,122.5c-36,6.7-37.5-9.9-74.1-9.9c-36.6,0-36.6,10-73.2,10c-36.6,0-36.6-10-73.2-10
		c-36.6,0-36.6,10-73.2,10c-36.6,0-36.6-10-73.2-10c-36.6,0-36.6,10-73.2,10c-36.6,0-36.6-10-73.2-10c-36.6,0-38.1,16.6-74.1,9.9
		c-6.7-1.3,5.9-11.8,5.9-18.6C20,97,10,97,10,90.2c0-6.8,10-6.8,10-13.7c0-6.8-10-6.8-10-13.7c0-6.8,10-6.8,10-13.7
		c0-6.8-10-6.8-10-13.7c0-6.9,10-6.9,10-13.7S7.3,4.3,14.1,3.1C50-3.6,51.6,13,88.2,13c36.6,0,36.6-10,73.2-10
		C198,3,198,13,234.6,13c36.6,0,36.6-10,73.2-10c36.6,0,36.6,10,73.2,10c36.6,0,36.6-10,73.2-10c36.6,0,36.6,10,73.2,10
		c36.6,0,38.1-16.6,74.1-9.9c6.7,1.3-5.9,11.8-5.9,18.6c0,6.8,10,6.8,10,13.7c0,6.8-10,6.8-10,13.7c0,6.8,10,6.8,10,13.7
		c0,6.8-10,6.8-10,13.7c0,6.8,10,6.8,10,13.7c0,6.9-11.5,8.2-9.9,14.9C598.1,115,608.2,121.2,601.4,122.5z"/>
</g>
</svg>
