<?xml version="1.0" encoding="utf-8"?>
<!-- Generator: Adobe Illustrator 18.0.0, SVG Export Plug-In . SVG Version: 6.00 Build 0)  -->
<!DOCTYPE svg PUBLIC "-//W3C//DTD SVG 1.1//EN" "http://www.w3.org/Graphics/SVG/1.1/DTD/svg11.dtd">
<svg version="1.1" id="Capa_1" xmlns="http://www.w3.org/2000/svg" xmlns:xlink="http://www.w3.org/1999/xlink" x="0px" y="0px"
	 viewBox="0 0 366.2 102.7" enable-background="new 0 0 366.2 102.7" xml:space="preserve">
<g>
	<path fill="#FFFFFF" d="M20.9,54.7v30.2L16,84.9C8.9,85.1,5.4,81.3,5.4,74V2h4.9c7.5,0,10.6,4.4,10.6,10.4v37"/>
	<path fill="#FFFFFF" d="M175.6,12.2v36.4c5.9-7.7,11.7-15.5,18.7-22.2c3.6-3.4,7.3-4,12.1-4h8.9V23c-4.3,3.6-18.5,19.7-24.9,27.7
		c4.9,6,9.6,12.2,15,17.8c5.5,5.5,8,6.7,11.8,7.9c-1.6,4.9-4.1,7.5-10.3,7.5c-3.4,0-7.4-1.6-10-4.2c-7.8-8-14.5-17.1-21.3-26v29.8
		l-4.8,0.1c-7,0.1-10.4-3.6-10.4-10.8V2h4.8C172.5,2,175.6,6.3,175.6,12.2z"/>
	<path fill="#FFFFFF" d="M242.9,84.9c-11.2,0-19.6-5.8-19.6-12v-6.8h0.6c3.3,3.1,11.1,5.7,18.3,5.7c7.5,0,11.1-2.2,11.1-6.7
		c0-3.5-2.2-5.2-12.7-6.7c-12.9-1.8-19.1-6.9-19.1-16.2c0-11.4,10.3-21.2,25.9-21.2c13.8,0,19.5,7.1,19.5,13v5.7h-0.6
		c-3.2-3.1-10.2-5.6-17.4-5.6c-9.3,0-12.2,2.9-12.2,6.8c0,3.1,1.8,4.3,12.2,6c12.7,2,19.5,7.6,19.5,17.3
		C268.4,77.2,259.3,84.9,242.9,84.9z"/>
	<path fill="#FFFFFF" d="M285.1,12.9c2-2.4,4.8-4.1,7.2-4.1h3.5v13.6h21.1v6.2c0,3.2-2.7,7.4-9,7.4h-12.1v23.7c0,7.9,3.5,11,9.6,11
		c4.9,0,8.6-0.6,11-2.2h0.5v5.5c0,6.2-4.5,10.2-13.4,10.2c-15.4,0-22.9-8.4-22.9-22.6V25C280.6,19,281.8,16.8,285.1,12.9z"/>
	<path fill="#FFFFFF" d="M360.6,37.3c-2.3-0.9-4.8-1.8-8.8-1.8c-6.8,0-10.5,3.7-10.5,13v35h-4.3c-6.8,0-11.2-3.3-11.2-9.6V45.8
		c0-12.2,6.5-23.9,22.6-23.9c9.4,0,12.7,5.3,12.7,10v5.5H360.6z"/>
	<g>
		<path fill="#FFFFFF" d="M124,85H121c-14.5,0-24.4-8.3-24.4-19.5c0-10.9,7.9-19.3,30.3-19.3h5.3v-0.7c0-8.6-4.1-11.2-13.1-11.2
			c-11,0-17.1,4.2-19.4,7H99v-4.8c0-6.8,6.1-14.9,22.2-14.9c13.6,0,25.8,6.3,25.8,27.4v14C147.1,76,137.6,85,124,85z M132.2,57.2
			h-5.3c-11.5,0-14.8,2.8-14.8,7.8c0,4.8,3.8,7.6,10.5,7.6c6.6,0,9.7-3.1,9.7-9.4V57.2z"/>
	</g>
	<path fill="#FFFFFF" d="M66.7,72.4c-8.9,0-16-5.3-17.1-12.4h10c20.1,0,28.6-3.8,28.6-15c0-14.6-11.8-23.7-24.4-23.7
		c-17.4,0-29.9,12.8-29.9,33.2c0,4.4,0.8,8.7,2.3,12.1h3.7c5.1,0,9.8,1.9,13.3,5.3c3.5,3.4,5.4,7.9,5.6,12.7c1.7,0.3,3.3,0.5,5,0.5
		c16.7,0,21.9-6,21.9-13.8v-4.7h-0.3C80.5,71.4,73,72.4,66.7,72.4z M49.6,46.8c0.3-7,5.4-13,12.8-13c7,0,11.5,3,11.5,9.1
		c0,4.3-3.3,5.9-17.7,5.9h-6.8L49.6,46.8z"/>
	<path fill="#50B86F" d="M39.7,69.7c8.7,0,15.8,6.7,15.8,15.3c0,8.7-7,15.4-15.7,15.4S24,93.4,24,84.7V69.9h15.5"/>
	<g>
		<path fill="#A9D6AD" d="M49.2,85.2c-0.7,0-1.2-0.5-1.2-1.2c0-4.2-3.4-7.5-7.7-7.5c-0.7,0-1.2-0.5-1.2-1.2s0.5-1.2,1.2-1.2
			c5.7,0,10.1,4.4,10.1,10C50.4,84.7,49.8,85.2,49.2,85.2z"/>
	</g>
</g>
</svg>
